<svg width="31" height="50" viewBox="0 0 31 50" fill="none" xmlns="http://www.w3.org/2000/svg">
<path d="M29.9422 21.2918C26.9336 33.0178 23.925 43.4042 14.8991 42.5837C2.66214 41.4712 4.09887 31.012 0.781635 21.2918C-2.5356 11.5716 5.18499 0 14.8991 0C24.6132 0 32.9508 9.56589 29.9422 21.2918Z" fill="#D9D9D9"/>
<path d="M21.8399 1.6972L24.0021 2.93151L25.1592 4.01153L18.7184 16.9631L16.1058 13.9511L21.8399 1.6972Z" fill="#C55858"/>
<path d="M13.8215 16.7861L16.1358 13.7899L26.71 22.8218L24.1887 25.7409L13.8215 16.7861Z" fill="#C55858"/>
<path d="M24.1667 14.5629C21.0842 14.9445 20.5989 16.7675 17.9629 18.2458L18.0801 19.2684L24.6869 15.8508L24.1667 14.5629Z" fill="#4A2E1E"/>
<path fill-rule="evenodd" clip-rule="evenodd" d="M8.19502 39.989C7.46244 39.6192 7.03033 39.4011 7.03033 39.5402V49.9516H22.3049V39.5402C18.0622 44.9696 10.9711 41.3903 8.19502 39.989ZM8.65034 47.2863L8.11033 48.5356L7.33889 49.9516H9.65322C9.59617 49.2524 9.34059 48.7718 9.09033 48.3013C8.91962 47.9804 8.75139 47.6641 8.65034 47.2863ZM10.4247 48.5356L10.9647 47.2863C11.0692 47.6771 11.2728 48.0021 11.4809 48.3344C11.7691 48.7945 12.0662 49.2688 12.1219 49.9516H9.88467L10.4247 48.5356ZM13.279 47.2863L12.739 48.5356L12.4304 49.9516H14.1276C14.0682 49.224 13.8529 48.7332 13.6383 48.244C13.506 47.9425 13.374 47.6416 13.279 47.2863ZM14.899 48.5356L15.4391 47.2863C15.5291 47.6228 15.6422 47.9105 15.7545 48.1961L15.7545 48.1961L15.7545 48.1961L15.7545 48.1962C15.9531 48.7014 16.1492 49.2002 16.2105 49.9516H14.4362L14.899 48.5356ZM17.5991 47.2863L17.0591 48.5356L16.3648 49.9516H18.2163C18.1466 49.0973 17.984 48.5695 17.8047 47.9875C17.7372 47.7682 17.6673 47.5413 17.5991 47.2863ZM19.0648 48.5356L19.6049 47.2863C19.854 48.2181 19.9718 48.7754 20.0677 49.9516H18.4477L19.0648 48.5356ZM21.302 47.2863L20.762 48.5356L20.2992 49.9516H21.9963C21.932 49.1631 21.7539 48.6527 21.5684 48.1211C21.4772 47.8598 21.3842 47.5934 21.302 47.2863Z" fill="black"/>
<path d="M9.82745 12.8833C10.3689 9.88944 10.369 13.9822 10.369 13.9822C9.52917 15.8681 8.01949 17.6062 8.21855 18.8113C8.4176 20.0165 7.46317 18.493 7.46317 18.493C7.57905 15.9693 9.28602 15.8771 9.82745 12.8833Z" fill="#F3BDBD"/>
<path d="M6.83661 20.0683C6.83661 18.0626 7.96299 20.6564 7.50587 21.2172C7.04874 21.7779 5.84446 25.0273 6.24405 26.317C6.64365 27.6067 5.69921 24.3734 5.69921 24.3734C5.54626 21.7365 6.83661 22.0741 6.83661 20.0683Z" fill="#F3BDBD"/>
<path d="M5.47037 15.1871C8.57485 15.2847 9.22509 17.0557 11.9854 18.2863L11.9623 19.3153L5.0703 16.5172L5.47037 15.1871Z" fill="#4A2E1E"/>
</svg>
